#N canvas 0 28 1366 710 10;
#X obj 260 667 dac~;
#X obj 30548 11200 tgl 15 0 empty empty empty 17 7 0 10 -262144 -1
-1 0 1;
#X obj 30547 11428 bng 15 250 50 0 empty empty empty 17 7 0 10 -262144
-1 -1;
#X obj 30547 11314 metro 1000;
#X floatatom 30593 11241 5 0 0 0 - - -;
#X obj 30477 11237 print :1;
#X obj 30752 11376 print :2;
#X floatatom 260 425 5 0 0 0 - - -;
#X obj 30748 11275 random 10;
#X obj 30748 11214 bng 15 250 50 0 empty empty empty 17 7 0 10 -262144
-1 -1;
#X obj 259 600 *~;
#X floatatom 274 575 5 0 1 0 - - -;
#X obj 394 422 vsl 15 128 0 1 0 0 empty empty empty 0 -9 0 10 -262144
-1 -1 1400 1;
#X obj 246 384 mtof;
#X obj 244 90 key;
#X floatatom 244 118 5 0 0 0 - - -;
#X obj 193 472 line~;
#X obj 259 536 *~;
#X obj 125 184 bng 15 250 50 0 empty empty empty 17 7 0 10 -262144
-1 -1;
#X msg 193 445 0 500;
#X obj 9 370 bng 15 250 50 0 empty empty empty 17 7 0 10 -262144 -1
-1;
#X msg 9 406 0 50;
#X msg 53 406 1 50;
#X obj 54 468 line~;
#X floatatom 193 568 5 0 0 0 - - -;
#X obj 193 536 env~;
#X obj 522 532 noise~;
#X obj 521 568 hip~;
#X obj 601 581 lop~;
#X floatatom 622 536 5 0 0 0 - - -;
#X obj 520 620 *~;
#X obj 601 620 *~;
#X obj 550 589 tgl 15 0 empty empty empty 17 7 0 10 -262144 -1 -1 0
1;
#X obj 672 628 abs;
#X floatatom 672 659 5 0 0 0 - - -;
#X floatatom 550 619 5 0 0 0 - - -;
#X obj 524 505 hsl 128 15 0 127 0 0 empty empty empty -2 -8 0 10 -262144
-1 -1 0 1;
#X obj 672 602 - 1;
#X floatatom 672 573 5 0 1 0 - - -;
#X floatatom 487 591 5 0 1 0 - - -;
#X obj 486 422 vsl 15 128 0 1 0 0 empty empty empty 0 -9 0 10 -262144
-1 -1 1000 1;
#X obj 673 428 vsl 15 128 0 1 0 0 empty empty empty 0 -9 0 10 -262144
-1 -1 2200 1;
#X floatatom 362 574 5 0 0 0 - - -;
#X obj 347 599 *~;
#X obj 427 421 vsl 15 128 0 1 0 0 empty empty empty 0 -9 0 10 -262144
-1 -1 3800 1;
#X obj 346 535 *~;
#X obj 9 337 keyup;
#X obj 260 472 phasor~;
#X obj 347 472 osc~;
#X obj 193 408 del 400;
#X msg 125 408 1 50;
#X floatatom 53 564 5 0 0 0 - - -;
#X obj 53 532 env~;
#X obj 521 670 dac~;
#X floatatom 170 271 5 0 0 0 - - -;
#X obj 193 197 bng 15 250 50 0 empty empty empty 17 7 0 10 -262144
-1 -1;
#X obj 193 161 sel 32;
#X obj 170 235 random 127;
#X msg 359 201 60;
#X msg 375 224 62;
#X msg 391 246 64;
#X msg 408 270 65;
#X msg 424 291 67;
#X msg 441 315 69;
#X msg 474 203 72;
#X msg 490 228 74;
#X msg 506 249 76;
#X msg 523 270 77;
#X msg 539 291 79;
#X msg 556 312 81;
#X msg 572 337 83;
#X msg 342 343 59;
#X msg 326 318 57;
#X msg 309 292 55;
#X msg 293 269 53;
#X msg 276 245 52;
#X msg 260 223 50;
#X msg 244 200 48;
#X msg 456 338 71;
#X obj 244 160 sel 97 122 101 114 116 121 117 113 115 100 102 103 104
106 119 120 99 118 98 110 44;
#X connect 1 0 3 0;
#X connect 1 0 4 0;
#X connect 1 0 5 0;
#X connect 3 0 2 0;
#X connect 7 0 47 0;
#X connect 7 0 48 0;
#X connect 8 0 6 0;
#X connect 9 0 8 0;
#X connect 10 0 0 0;
#X connect 10 0 0 1;
#X connect 11 0 10 1;
#X connect 12 0 11 0;
#X connect 13 0 7 0;
#X connect 14 0 15 0;
#X connect 14 0 18 0;
#X connect 14 0 56 0;
#X connect 15 0 79 0;
#X connect 16 0 25 0;
#X connect 16 0 45 1;
#X connect 17 0 10 0;
#X connect 18 0 50 0;
#X connect 18 0 22 0;
#X connect 18 0 49 0;
#X connect 19 0 16 0;
#X connect 20 0 21 0;
#X connect 21 0 23 0;
#X connect 22 0 23 0;
#X connect 23 0 17 1;
#X connect 23 0 52 0;
#X connect 25 0 24 0;
#X connect 26 0 27 0;
#X connect 26 0 28 0;
#X connect 27 0 30 0;
#X connect 28 0 31 0;
#X connect 29 0 28 1;
#X connect 29 0 27 1;
#X connect 30 0 53 0;
#X connect 30 0 53 1;
#X connect 31 0 53 0;
#X connect 31 0 53 1;
#X connect 32 0 30 1;
#X connect 32 0 35 0;
#X connect 32 0 37 0;
#X connect 33 0 31 1;
#X connect 33 0 34 0;
#X connect 36 0 29 0;
#X connect 37 0 33 0;
#X connect 38 0 31 1;
#X connect 39 0 30 1;
#X connect 40 0 39 0;
#X connect 41 0 38 0;
#X connect 42 0 43 1;
#X connect 43 0 0 1;
#X connect 43 0 0 0;
#X connect 44 0 42 0;
#X connect 45 0 43 0;
#X connect 46 0 20 0;
#X connect 47 0 17 0;
#X connect 48 0 45 0;
#X connect 49 0 19 0;
#X connect 50 0 16 0;
#X connect 52 0 51 0;
#X connect 54 0 13 0;
#X connect 55 0 57 0;
#X connect 56 0 55 0;
#X connect 57 0 54 0;
#X connect 58 0 13 0;
#X connect 59 0 13 0;
#X connect 60 0 13 0;
#X connect 61 0 13 0;
#X connect 62 0 13 0;
#X connect 63 0 13 0;
#X connect 64 0 13 0;
#X connect 65 0 13 0;
#X connect 66 0 13 0;
#X connect 67 0 13 0;
#X connect 68 0 13 0;
#X connect 69 0 13 0;
#X connect 70 0 13 0;
#X connect 71 0 13 0;
#X connect 72 0 13 0;
#X connect 73 0 13 0;
#X connect 74 0 13 0;
#X connect 75 0 13 0;
#X connect 76 0 13 0;
#X connect 77 0 13 0;
#X connect 78 0 13 0;
#X connect 79 0 77 0;
#X connect 79 1 76 0;
#X connect 79 2 75 0;
#X connect 79 3 74 0;
#X connect 79 4 73 0;
#X connect 79 5 72 0;
#X connect 79 6 71 0;
#X connect 79 7 58 0;
#X connect 79 8 59 0;
#X connect 79 9 60 0;
#X connect 79 10 61 0;
#X connect 79 11 62 0;
#X connect 79 12 63 0;
#X connect 79 13 78 0;
#X connect 79 14 64 0;
#X connect 79 15 65 0;
#X connect 79 16 66 0;
#X connect 79 17 67 0;
#X connect 79 18 68 0;
#X connect 79 19 69 0;
#X connect 79 20 70 0;
