#N canvas -4 24 1366 702 10;
#X obj -457 347 osc~;
#X obj -455 571 dac~;
#X floatatom -457 317 5 0 0 0 - - -;
#X obj -456 383 *~;
#X obj -412 58 tgl 15 0 empty empty empty 17 7 0 10 -262144 -1 -1 1
1;
#X obj -127 367 line~;
#X floatatom -361 56 5 0 0 0 - - -;
#X floatatom -127 213 5 0 0 0 - - -;
#X floatatom -90 213 5 0 0 0 - - -;
#X floatatom -52 212 5 0 0 0 - - -;
#X obj -127 293 unpack 0 0 0;
#X obj -127 326 pack 0 0;
#X floatatom -3 211 5 0 0 0 - - -;
#X floatatom 40 211 5 0 0 0 - - -;
#X floatatom 84 210 5 0 0 0 - - -;
#X obj -3 254 pack 1 200 2000;
#X obj -3 291 unpack 0 0 0;
#X obj -3 324 pack 0 0;
#X obj -127 256 pack 0 20 200;
#X floatatom -851 205 5 0 0 0 - - -;
#X floatatom -808 205 5 0 0 0 - - -;
#X floatatom -764 204 5 0 0 0 - - -;
#X obj -851 285 unpack 0 0 0;
#X obj -851 318 pack 0 0;
#X floatatom -852 56 5 0 0 0 - - -;
#X floatatom -809 56 5 0 0 0 - - -;
#X floatatom -765 55 5 0 0 0 - - -;
#X obj -852 99 pack 1 200 2000;
#X obj -852 136 unpack 0 0 0;
#X obj -852 169 pack 0 0;
#X obj -457 290 line;
#X obj -851 248 pack 1 200 2000;
#X obj -456 480 *~;
#X floatatom -441 453 5 0 0 0 - - -;
#X obj -437 427 hsl 128 15 0 1 0 0 empty empty empty -2 -8 0 10 -262144
-1 -1 1800 1;
#X obj -3 65 vsl 15 128 0 1 0 0 empty empty empty 0 -9 0 10 -262144
-1 -1 8800 1;
#X obj -127 67 vsl 15 128 0 1 0 0 empty empty empty 0 -9 0 10 -262144
-1 -1 8400 1;
#X floatatom 132 211 5 0 0 0 - - -;
#X floatatom 175 211 5 0 0 0 - - -;
#X floatatom 219 212 5 0 0 0 - - -;
#X obj 132 254 pack 1 200 2000;
#X obj 132 290 unpack 0 0 0;
#X obj 132 324 pack 0 0;
#X obj 132 65 vsl 15 128 0 1 0 0 empty empty empty 0 -9 0 10 -262144
-1 -1 7800 1;
#X floatatom -849 510 5 0 0 0 - - -;
#X floatatom -806 510 5 0 0 0 - - -;
#X floatatom -762 509 5 0 0 0 - - -;
#X obj -849 553 pack 1 200 2000;
#X obj -849 590 unpack 0 0 0;
#X obj -849 623 pack 0 0;
#X floatatom -849 364 5 0 0 0 - - -;
#X floatatom -806 364 5 0 0 0 - - -;
#X floatatom -762 363 5 0 0 0 - - -;
#X obj -849 407 pack 1 200 2000;
#X obj -849 444 unpack 0 0 0;
#X obj -849 477 pack 0 0;
#X floatatom 271 211 5 0 0 0 - - -;
#X floatatom 314 211 5 0 0 0 - - -;
#X floatatom 358 210 5 0 0 0 - - -;
#X obj 271 254 pack 1 200 2000;
#X obj 271 291 unpack 0 0 0;
#X obj 271 324 pack 0 0;
#X obj 271 65 vsl 15 128 0 1 0 0 empty empty empty 0 -9 0 10 -262144
-1 -1 8700 1;
#X obj -412 122 counter;
#X obj -412 154 sel 0 1 2 3;
#X floatatom -452 155 5 0 0 0 - - -;
#X obj -412 90 metro 500;
#X msg -340 105 3;
#X connect 0 0 3 0;
#X connect 2 0 0 0;
#X connect 3 0 32 0;
#X connect 4 0 66 0;
#X connect 5 0 3 1;
#X connect 6 0 66 1;
#X connect 7 0 18 0;
#X connect 8 0 18 1;
#X connect 9 0 18 2;
#X connect 10 0 11 0;
#X connect 10 1 11 1;
#X connect 10 2 6 0;
#X connect 11 0 5 0;
#X connect 12 0 15 0;
#X connect 13 0 15 1;
#X connect 14 0 15 2;
#X connect 15 0 16 0;
#X connect 16 0 17 0;
#X connect 16 1 17 1;
#X connect 16 2 6 0;
#X connect 17 0 5 0;
#X connect 18 0 10 0;
#X connect 19 0 31 0;
#X connect 20 0 31 1;
#X connect 21 0 31 2;
#X connect 22 0 23 0;
#X connect 22 1 23 1;
#X connect 23 0 30 0;
#X connect 24 0 27 0;
#X connect 25 0 27 1;
#X connect 26 0 27 2;
#X connect 27 0 28 0;
#X connect 28 0 29 0;
#X connect 28 1 29 1;
#X connect 29 0 30 0;
#X connect 30 0 2 0;
#X connect 31 0 22 0;
#X connect 32 0 1 0;
#X connect 32 0 1 1;
#X connect 33 0 32 1;
#X connect 34 0 33 0;
#X connect 35 0 12 0;
#X connect 36 0 7 0;
#X connect 37 0 40 0;
#X connect 38 0 40 1;
#X connect 39 0 40 2;
#X connect 40 0 41 0;
#X connect 41 0 42 0;
#X connect 41 1 42 1;
#X connect 41 2 6 0;
#X connect 42 0 5 0;
#X connect 43 0 37 0;
#X connect 44 0 47 0;
#X connect 45 0 47 1;
#X connect 46 0 47 2;
#X connect 47 0 48 0;
#X connect 48 0 49 0;
#X connect 48 1 49 1;
#X connect 49 0 30 0;
#X connect 50 0 53 0;
#X connect 51 0 53 1;
#X connect 52 0 53 2;
#X connect 53 0 54 0;
#X connect 54 0 55 0;
#X connect 54 1 55 1;
#X connect 55 0 30 0;
#X connect 56 0 59 0;
#X connect 57 0 59 1;
#X connect 58 0 59 2;
#X connect 59 0 60 0;
#X connect 60 0 61 0;
#X connect 60 1 61 1;
#X connect 60 2 6 0;
#X connect 61 0 5 0;
#X connect 62 0 56 0;
#X connect 63 0 64 0;
#X connect 63 0 65 0;
#X connect 64 0 18 0;
#X connect 64 0 27 0;
#X connect 64 1 15 0;
#X connect 64 1 31 0;
#X connect 64 2 40 0;
#X connect 64 2 53 0;
#X connect 64 3 59 0;
#X connect 64 3 47 0;
#X connect 66 0 63 0;
#X connect 67 0 63 4;
