#N canvas 0 24 1366 702 10;
#X obj -1102 380 dac~;
#X text -915 278 CutOff;
#X text -861 278 Reso;
#X text -822 278 EnvMod;
#X text -772 278 Decay;
#X obj -901 215 loadbang;
#X obj -670 294 vsl 25 128 0 127 0 0 empty empty empty 0 -8 0 8 -262144
-1 -1 0 1;
#X msg -670 450 glide \$1;
#X msg -681 226 tune \$1;
#X floatatom -681 208 5 0 0 0 - - -;
#X obj -681 248 s bass_ctl;
#X msg -681 185 440;
#X obj -1091 279 r bass_ctl;
#X text -635 206 Tune;
#X text -676 279 Glide;
#X obj -901 293 vsl 25 128 -1 1 0 0 empty empty empty 0 -8 0 8 -262144
-1 -1 10225 1;
#X obj -855 293 vsl 25 128 -1 2 0 0 empty empty empty 0 -8 0 8 -262144
-1 -1 8720 1;
#X obj -809 293 vsl 25 128 -1 2 0 0 empty empty empty 0 -8 0 8 -262144
-1 -1 7197 1;
#X obj -763 293 vsl 25 128 -1 1 0 0 empty empty empty 0 -8 0 8 -262144
-1 -1 6985 1;
#X obj -717 293 vsl 25 128 0 1 0 0 empty empty empty 0 -8 0 8 -262144
-1 -1 6350 1;
#X msg -901 250 0.5;
#X msg -855 250 0.8;
#X msg -809 250 0.7;
#X msg -763 250 0.1;
#X msg -717 250 0.5;
#X text -682 170 VCO Tuning:;
#X msg -901 433 cutoff \$1;
#X msg -855 453 reso \$1;
#X obj -764 520 s bass_ctl;
#X msg -809 429 envmod \$1;
#X msg -763 449 decay \$1;
#X msg -717 429 pw \$1;
#X msg -1084 310 reset;
#X text -1040 299 Emergency Reset;
#X text -1040 312 in case the filter;
#X text -1040 324 goes mad;
#X text -719 268 Rect;
#X text -722 278 Width;
#X obj -670 429 / 127;
#X msg -1056 454 pitch \$1;
#X obj -1053 396 hsl 129 15 0 128 0 0 empty empty empty -2 -6 0 8 -262144
-1 -1 6400 1;
#X obj -1056 413 - 64;
#X obj -1056 473 s bass_ctl;
#X obj -1056 432 / 16;
#X msg -1056 377 64;
#X obj -1023 414 nbx 5 14 -1e+037 1e+037 0 0 empty empty empty 0 -6
0 10 -262144 -1 -1 0 256;
#X text -1015 377 Pitch Bend;
#X obj -1133 13 miniseq;
#X obj -1091 347 bassemu~;
#X obj -935 638 dac~;
#X obj -575 148 vradio 15 1 0 5 empty empty empty 0 -6 0 8 -262144
-1 -1 1;
#X msg -575 226 ext \$1;
#X obj -575 246 s bass_ctl;
#X obj -575 28 vradio 15 1 0 4 empty empty empty 0 -6 0 8 -262144 -1
-1 0;
#X obj -575 111 s bass_ctl;
#X msg -575 91 vco \$1;
#X obj -575 284 tgl 15 0 empty empty empty 0 -6 0 8 -262144 -1 -1 0
1;
#X obj -575 322 s bass_ctl;
#X msg -575 302 hpf \$1;
#X obj -1116 550 vradio 15 1 0 3 empty empty empty 0 -6 0 8 -262144
-1 -1 0;
#X obj -1116 618 s bass_ctl;
#X msg -1116 598 limit \$1;
#X floatatom -455 552 5 0 0 0 - - -;
#X obj -924 537 r bass_ctl;
#X text -556 27 Saw;
#X text -556 43 Square;
#X text -556 59 Tri;
#X text -556 73 Sine;
#X text -555 285 VCO-HPF;
#X text -558 146 Int.Only;
#X text -558 163 Ext.Only;
#X text -558 178 Int.+Ext.;
#X text -558 193 Ext.Only+HPF;
#X text -557 209 Int.+Ext.+HPF;
#X text -1098 550 No limiting;
#X text -1097 566 Hard Limiting;
#X text -1097 581 Sine Limiting;
#X msg -465 475 30 0.5 0.3 0.1 0.5;
#X msg -455 616 -1;
#X text -470 448 <note> <reso> <envmod> <decay> <pulsewidth>;
#X text -469 435 Send Note-Events as List of Floats:;
#X text -455 598 -1 to turn Note Off;
#X text -467 459 All Parameters are optional;
#X obj -465 642 s bass_ctl;
#X text -1136 532 Output-Signal Limiting:;
#X text -576 12 VCO WaveSelect:;
#X text -576 133 SoundSource:;
#X text -576 268 Extra HiPass:;
#X msg -569 616 envinc \$1;
#X obj -569 636 s bass_ctl;
#X msg -569 477 8;
#X msg -569 494 64;
#X msg -569 511 256;
#X msg -569 528 1024;
#X msg -569 545 8192;
#X msg -569 579 32768;
#X msg -569 596 65536;
#X msg -569 562 16384;
#X text -455 521 Note-Number to;
#X text -455 534 play immediatly;
#X text -601 462 EnvGen Stepsize:;
#X msg -917 568 reset;
#X text -873 557 Emergency Reset;
#X text -873 570 in case the filter;
#X text -873 582 goes mad;
#N canvas 504 253 494 344 META 0;
#X text 12 135 RELEASE_DATE 2009-06-12;
#X text 12 155 HELP_PATCH_AUTHORS "pd meta" information added by Jonathan
Wilkes for Pd version 0.42.;
#X text 12 45 DESCRIPTION a transistor bass emulation;
#X text 12 65 INLET_0 float list reset pitch cutoff reso envmod decay
pw glide limit envinc hpf ext vco tune;
#X text 12 95 OUTLET_0 signal;
#X text 12 115 AUTHOR Christian Klippel;
#X text 12 25 LICENSE GPL;
#X text 12 5 KEYWORDS signal;
#X restore -670 645 pd META;
#X obj -924 605 bassemu~;
#X obj -316 247 *~;
#X obj -301 223 line~;
#X obj -392 179 cos~;
#X obj -392 154 +~;
#X obj -301 200 pack 0 50;
#X floatatom -301 152 0 0 300 0 - - -;
#X obj -301 176 / 100;
#X obj -392 129 phasor~;
#X obj -390 340 output~;
#X obj -391 309 hip~;
#N canvas 62 299 558 609 fft 0;
#X obj 19 61 inlet~;
#X obj 208 212 inlet;
#X obj 29 92 rfft~;
#X obj 29 125 *~;
#X obj 60 125 *~;
#X obj 29 155 sqrt~;
#X obj 332 109 block~ 4096 1;
#X obj 29 181 biquad~ 0 0 0 0 1;
#X text 93 93 Fourier series;
#X text 98 146 magnitude;
#X text 96 131 calculate;
#X text 21 3 This subpatch computes the spectrum of the incoming signal
with a (rectangular windowed) FFT. FFTs aren't properly introduced
until much later.;
#X text 83 61 signal to analyze;
#X text 193 164 delay two samples;
#X text 191 182 for better graphing;
#X obj 16 425 samplerate~;
#X obj 16 402 bng 18 250 50 0 empty empty empty 0 -6 0 8 -262144 -1
-1;
#X floatatom 16 472 5 0 0 0 - - -;
#X obj 16 448 / 256;
#X obj 16 378 loadbang;
#X obj 72 494 s fundamental;
#X text 14 319 At load time \, calculate a good choice of fundamental
frequency for showing spectra: the 16th bin in a 4096-point spectrum
\, so SR*16/4096 or SR/256.;
#X obj 220 257 metro 500;
#X obj 220 234 inlet;
#X text 273 232 toggle to graph repeatedly;
#X text 262 212 bang to graph once;
#X obj 16 494 t b f;
#X obj 19 295 tabwrite~ E10-spectrum;
#X obj 208 295 tabwrite~ E10-spectrum;
#X text 72 536 set carrier multiplier and modulation multipliers after
fundamental;
#X msg 16 516 \; cm 8 \; m1 2 \; m2 3;
#X connect 0 0 2 0;
#X connect 0 0 27 0;
#X connect 1 0 27 0;
#X connect 1 0 28 0;
#X connect 2 0 3 0;
#X connect 2 0 3 1;
#X connect 2 1 4 0;
#X connect 2 1 4 1;
#X connect 3 0 5 0;
#X connect 4 0 5 0;
#X connect 5 0 7 0;
#X connect 7 0 28 0;
#X connect 15 0 18 0;
#X connect 16 0 15 0;
#X connect 17 0 26 0;
#X connect 18 0 17 0;
#X connect 19 0 16 0;
#X connect 22 0 27 0;
#X connect 22 0 28 0;
#X connect 23 0 22 0;
#X connect 26 0 30 0;
#X connect 26 1 20 0;
#X restore -345 311 pd fft;
#X obj -285 290 bng 18 250 50 0 empty empty empty 0 -6 0 8 -262144
-1 -1;
#X obj -285 311 tgl 18 0 empty empty empty 0 -6 0 8 -262144 -1 -1 1
1;
#X text -264 310 <-- repeatedly;
#X text -263 290 <-- graph once;
#N canvas 0 0 450 300 (subpatch) 0;
#X array E10-spectrum 259 float 0;
#X coords 0 2100 258 -20 259 130 1;
#X restore -45 26 graph;
#X text -15 157 2;
#X text 16 157 4;
#X text -45 157 0;
#X text -7 172 -- partial number --;
#X text 49 8 SPECTRUM;
#X text 246 238 0;
#X text 247 120 0.5;
#X obj -317 128 osc~;
#X obj -143 79 r fundamental;
#X text 48 157 6;
#X text 81 157 8;
#X text 109 157 10;
#X text 141 157 12;
#X text 173 157 14;
#X floatatom -392 58 3 0 15 0 - - -;
#X obj -392 105 *;
#X obj -392 33 r cm;
#X text -367 3 SPECTRUM OF COMPLEX PHASE MODULATION;
#X text -387 73 carrier;
#X obj -317 107 *;
#X floatatom -317 60 3 0 15 0 - - -;
#X text -311 74 mod 1;
#X obj -317 35 r m1;
#X text -272 154 index1;
#X obj -213 249 *~;
#X obj -198 225 line~;
#X obj -198 202 pack 0 50;
#X floatatom -198 154 0 0 300 0 - - -;
#X obj -198 178 / 100;
#X obj -214 130 osc~;
#X obj -214 109 *;
#X floatatom -214 62 3 0 15 0 - - -;
#X text -208 76 mod 2;
#X text -164 154 index2;
#X obj -214 37 r m2;
#X obj -39 214 bng 15 250 50 0 empty empty empty 17 7 0 10 -262144
-1 -1;
#X obj -39 241 openpanel;
#X msg -39 269 read -resize \$1 array1;
#X obj -39 298 soundfiler;
#X obj -1323 850 timestretch~ array1;
#N canvas 0 0 450 300 (subpatch) 0;
#X array array1 100 float 3;
#A 0 0 0 0 0 0 0 0 0 0 0 0 0 0 0 0 0 0 0 0 0 0 0 0 0 0 0 0 0 0 0 0
0 0 0 0 0 0 0 0 0 0 0 0 0 0 0 0 0 0 0 0 0 0 0 0 0 0 0 0 0 0 0 0 0 0
0 0 0 0 0 0 0 0 0 0 0 0 0 0 0 0 0 0 0 0 0 0 0 0 0 0 0 0 0 0 0 0 0 0
0;
#X coords 0 1 99 -1 200 140 1;
#X restore -43 341 graph;
#X msg -50 523 4096;
#X msg -3 524 8192;
#X floatatom -3 559 5 0 0 0 - - -;
#X obj -3 586 timestretch~ array1;
#X obj -3 618 *~ 0.5;
#X floatatom 48 620 5 0 0 0 - - -;
#X obj -4 655 dac~;
#X floatatom 109 559 5 0 0 0 - - -;
#X obj 72 535 hsl 128 15 0 2 0 0 empty empty empty -2 -8 0 10 -262144
-1 -1 0 1;
#X msg 75 500 0.5;
#X obj -1012 242 / 10;
#X obj -189 561 readsf~;
#X msg -165 480 open;
#X msg -200 508 1;
#X obj -215 469 t b b;
#X connect 5 0 20 0;
#X connect 5 0 21 0;
#X connect 5 0 22 0;
#X connect 5 0 23 0;
#X connect 5 0 24 0;
#X connect 5 0 11 0;
#X connect 5 0 44 0;
#X connect 6 0 38 0;
#X connect 7 0 28 0;
#X connect 8 0 10 0;
#X connect 9 0 8 0;
#X connect 11 0 9 0;
#X connect 12 0 48 0;
#X connect 15 0 26 0;
#X connect 16 0 27 0;
#X connect 17 0 29 0;
#X connect 18 0 30 0;
#X connect 19 0 31 0;
#X connect 20 0 15 0;
#X connect 21 0 16 0;
#X connect 22 0 17 0;
#X connect 23 0 18 0;
#X connect 24 0 19 0;
#X connect 26 0 28 0;
#X connect 27 0 28 0;
#X connect 29 0 28 0;
#X connect 30 0 28 0;
#X connect 31 0 28 0;
#X connect 32 0 48 0;
#X connect 38 0 7 0;
#X connect 39 0 42 0;
#X connect 40 0 41 0;
#X connect 41 0 43 0;
#X connect 43 0 39 0;
#X connect 43 0 45 0;
#X connect 44 0 40 0;
#X connect 47 0 48 0;
#X connect 47 0 174 0;
#X connect 48 0 0 0;
#X connect 48 0 0 1;
#X connect 50 0 51 0;
#X connect 51 0 52 0;
#X connect 53 0 55 0;
#X connect 55 0 54 0;
#X connect 56 0 58 0;
#X connect 58 0 57 0;
#X connect 59 0 61 0;
#X connect 61 0 60 0;
#X connect 62 0 83 0;
#X connect 63 0 106 0;
#X connect 77 0 83 0;
#X connect 78 0 83 0;
#X connect 88 0 89 0;
#X connect 90 0 88 0;
#X connect 91 0 88 0;
#X connect 92 0 88 0;
#X connect 93 0 88 0;
#X connect 94 0 88 0;
#X connect 95 0 88 0;
#X connect 96 0 88 0;
#X connect 97 0 88 0;
#X connect 101 0 106 0;
#X connect 106 0 49 0;
#X connect 106 0 49 1;
#X connect 107 0 110 1;
#X connect 108 0 107 1;
#X connect 109 0 116 0;
#X connect 109 0 117 0;
#X connect 110 0 109 0;
#X connect 111 0 108 0;
#X connect 112 0 113 0;
#X connect 113 0 111 0;
#X connect 114 0 110 0;
#X connect 116 0 115 0;
#X connect 116 0 115 1;
#X connect 116 0 48 0;
#X connect 118 0 117 1;
#X connect 119 0 117 2;
#X connect 130 0 107 0;
#X connect 131 0 138 1;
#X connect 131 0 142 1;
#X connect 131 0 153 1;
#X connect 137 0 138 0;
#X connect 138 0 114 0;
#X connect 139 0 137 0;
#X connect 142 0 130 0;
#X connect 143 0 142 0;
#X connect 145 0 143 0;
#X connect 147 0 110 1;
#X connect 148 0 147 1;
#X connect 149 0 148 0;
#X connect 150 0 151 0;
#X connect 151 0 149 0;
#X connect 152 0 147 0;
#X connect 153 0 152 0;
#X connect 154 0 153 0;
#X connect 157 0 154 0;
#X connect 158 0 159 0;
#X connect 159 0 160 0;
#X connect 160 0 161 0;
#X connect 164 0 166 0;
#X connect 165 0 166 0;
#X connect 166 0 167 0;
#X connect 167 0 168 0;
#X connect 168 0 170 0;
#X connect 168 0 170 1;
#X connect 169 0 168 1;
#X connect 171 0 167 1;
#X connect 172 0 171 0;
#X connect 173 0 172 0;
#X connect 174 0 137 0;
#X connect 175 1 178 0;
#X connect 176 0 175 0;
#X connect 177 0 175 0;
#X connect 178 0 177 0;
#X connect 178 1 176 0;
