#N canvas 0 24 1366 702 10;
#X obj 4 70 hip~ 10;
#X floatatom 190 -19 0 0 0 0 - - -;
#X obj 190 34 line~;
#X obj 190 10 pack 0 100;
#X floatatom 114 -55 0 0 0 0 - - -;
#X floatatom 271 63 0 0 0 0 - - -;
#X obj 271 134 line~;
#X obj 271 110 pack 0 100;
#X obj 271 86 * 0.01;
#X floatatom 34 -51 0 0 0 0 - - -;
#X obj 34 20 line~;
#X obj 34 -4 pack 0 100;
#X obj 4 94 clip~ -0.2 0.2;
#X obj 34 -28 * 0.01;
#X obj 4 118 +~;
#X obj 250 160 *~;
#X obj 115 52 *~;
#X obj 115 -20 / 100;
#X obj 4 142 hip~ 5;
#X obj 115 28 +~ 1;
#X obj 115 76 +~ 1.46;
#X obj 115 100 vd~ G03-del;
#X obj 250 184 clip~ -1 1;
#X obj 324 -177 adc~;
#X obj 5 36 *~;
#X obj 115 4 osc~ 0;
#X obj 324 419 dac~;
#X obj 4 238 *~;
#X floatatom 19 207 5 0 0 0 - - -;
#X obj 22 176 hsl 128 15 0 1 0 0 empty empty empty -2 -8 0 10 -262144
-1 -1 11700 1;
#X obj 323 -83 *~;
#X floatatom 339 -118 5 0 0 0 - - -;
#X obj 342 -149 hsl 128 15 0 1 0 0 empty empty empty -2 -8 0 10 -262144
-1 -1 0 1;
#X obj 34 -194 vsl 15 128 0 100 0 0 empty empty empty 0 -9 0 10 -262144
-1 -1 10900 1;
#X obj 114 -196 vsl 15 128 0 200 0 0 empty empty empty 0 -9 0 10 -262144
-1 -1 1900 1;
#X obj 192 -194 vsl 15 128 0 1000 0 0 empty empty empty 0 -9 0 10 -262144
-1 -1 11200 1;
#X obj 271 -197 vsl 15 128 0 100 0 0 empty empty empty 0 -9 0 10 -262144
-1 -1 10500 1;
#X floatatom 909 -173 0 0 0 0 - - -;
#X obj 972 95 *~;
#X obj 1095 32 line~;
#X floatatom 1127 -151 0 0 0 0 - - -;
#X obj 1095 6 pack 0 200;
#X obj 1127 -177 r window;
#X obj 909 -202 r transpose;
#X obj 909 -120 exp;
#X floatatom 909 -92 6 0 0 0 - - -;
#X obj 909 -4 /;
#X obj 1036 -74 * 0.001;
#X obj 1204 102 line~;
#X obj 1204 77 pack 0 200;
#X floatatom 1204 26 0 0 0 0 - - -;
#X obj 1204 0 r delay;
#X obj 972 121 +~;
#X obj 909 147 cos~;
#X obj 909 174 *~;
#X obj 909 203 +~;
#X obj 996 54 wrap~;
#X obj 1141 97 *~;
#X obj 1141 130 +~;
#X obj 1078 157 cos~;
#X obj 1078 184 *~;
#X obj 1036 -47 t b f;
#X floatatom 909 22 6 0 0 0 - - -;
#X obj 996 27 +~ 0.5;
#X obj 909 95 -~ 0.5;
#X obj 909 121 *~ 0.5;
#X obj 1078 96 -~ 0.5;
#X obj 1078 129 *~ 0.5;
#X obj 909 -67 - 1;
#X obj 909 -145 * 0.05776;
#X obj 909 -41 * -1;
#X text 943 -177 <-- transposition;
#X text 986 -164 (halftones);
#X text 972 -100 speed;
#X text 971 -86 change;
#X text 1171 -152 <--window (msec);
#X text 944 -11 tape head;
#X obj 1204 53 max 1.5;
#X text 1207 -41 delay;
#X text 1204 -23 (msec);
#X obj 1127 -124 max 1;
#X text 945 2 rotation freq;
#X obj 1141 159 vd~ G04-del;
#X obj 971 147 vd~ G04-del;
#X obj 909 53 phasor~;
#X obj 910 282 *~;
#X floatatom 925 255 5 0 0 0 - - -;
#X obj 930 226 hsl 128 15 0 1 0 0 empty empty empty -2 -8 0 10 -262144
-1 -1 11200 1;
#X obj 470 59 hip~ 10;
#X floatatom 656 -30 0 0 0 0 - - -;
#X obj 656 23 line~;
#X obj 656 -1 pack 0 100;
#X floatatom 580 -66 0 0 0 0 - - -;
#X floatatom 737 52 0 0 0 0 - - -;
#X obj 737 123 line~;
#X obj 737 99 pack 0 100;
#X obj 737 75 * 0.01;
#X floatatom 500 -62 0 0 0 0 - - -;
#X obj 500 9 line~;
#X obj 500 -15 pack 0 100;
#X obj 470 83 clip~ -0.2 0.2;
#X obj 500 -39 * 0.01;
#X obj 470 107 +~;
#X obj 716 149 *~;
#X obj 581 41 *~;
#X obj 581 -31 / 100;
#X obj 470 131 hip~ 5;
#X obj 581 17 +~ 1;
#X obj 581 65 +~ 1.46;
#X obj 716 173 clip~ -1 1;
#X obj 471 25 *~;
#X obj 581 -7 osc~ 0;
#X obj 470 227 *~;
#X floatatom 485 196 5 0 0 0 - - -;
#X obj 488 165 hsl 128 15 0 1 0 0 empty empty empty -2 -8 0 10 -262144
-1 -1 12700 1;
#X obj 500 -205 vsl 15 128 0 100 0 0 empty empty empty 0 -9 0 10 -262144
-1 -1 12700 1;
#X obj 580 -204 vsl 15 128 0 200 0 0 empty empty empty 0 -9 0 10 -262144
-1 -1 0 1;
#X obj 656 -204 vsl 15 128 0 8000 0 0 empty empty empty 0 -9 0 10 -262144
-1 -1 9800 1;
#X obj 737 -210 vsl 15 128 0 100 0 0 empty empty empty 0 -9 0 10 -262144
-1 -1 12700 1;
#X obj 580 89 vd~ G04-del;
#X obj 716 197 delwrite~ G04-del 8000;
#X obj 250 208 delwrite~ G03-del 1500;
#X connect 0 0 12 0;
#X connect 1 0 3 0;
#X connect 2 0 16 1;
#X connect 3 0 2 0;
#X connect 4 0 17 0;
#X connect 5 0 8 0;
#X connect 6 0 15 1;
#X connect 7 0 6 0;
#X connect 8 0 7 0;
#X connect 9 0 13 0;
#X connect 10 0 24 1;
#X connect 11 0 10 0;
#X connect 12 0 14 0;
#X connect 13 0 11 0;
#X connect 14 0 18 0;
#X connect 15 0 22 0;
#X connect 16 0 20 0;
#X connect 17 0 25 0;
#X connect 18 0 15 0;
#X connect 18 0 27 0;
#X connect 19 0 16 0;
#X connect 20 0 21 0;
#X connect 21 0 14 1;
#X connect 22 0 121 0;
#X connect 23 0 30 0;
#X connect 24 0 0 0;
#X connect 25 0 19 0;
#X connect 27 0 26 0;
#X connect 27 0 26 1;
#X connect 27 0 110 0;
#X connect 28 0 27 1;
#X connect 29 0 28 0;
#X connect 30 0 26 0;
#X connect 31 0 30 1;
#X connect 32 0 31 0;
#X connect 33 0 9 0;
#X connect 34 0 4 0;
#X connect 35 0 1 0;
#X connect 36 0 5 0;
#X connect 37 0 69 0;
#X connect 38 0 52 0;
#X connect 39 0 38 1;
#X connect 39 0 57 1;
#X connect 40 0 80 0;
#X connect 41 0 39 0;
#X connect 42 0 40 0;
#X connect 43 0 37 0;
#X connect 44 0 45 0;
#X connect 45 0 68 0;
#X connect 46 0 62 0;
#X connect 47 0 61 0;
#X connect 48 0 52 1;
#X connect 48 0 58 1;
#X connect 49 0 48 0;
#X connect 50 0 77 0;
#X connect 51 0 50 0;
#X connect 52 0 83 0;
#X connect 53 0 54 0;
#X connect 54 0 55 0;
#X connect 55 0 85 0;
#X connect 56 0 57 0;
#X connect 56 0 66 0;
#X connect 57 0 58 0;
#X connect 58 0 82 0;
#X connect 59 0 60 0;
#X connect 60 0 55 1;
#X connect 61 0 46 0;
#X connect 61 1 46 1;
#X connect 62 0 84 0;
#X connect 63 0 56 0;
#X connect 64 0 65 0;
#X connect 65 0 53 0;
#X connect 66 0 67 0;
#X connect 67 0 59 0;
#X connect 68 0 70 0;
#X connect 69 0 44 0;
#X connect 70 0 46 0;
#X connect 77 0 49 0;
#X connect 80 0 47 0;
#X connect 80 0 41 0;
#X connect 82 0 60 1;
#X connect 83 0 54 1;
#X connect 84 0 38 0;
#X connect 84 0 64 0;
#X connect 84 0 63 0;
#X connect 85 0 26 1;
#X connect 85 0 26 0;
#X connect 85 0 24 0;
#X connect 86 0 85 1;
#X connect 87 0 86 0;
#X connect 88 0 100 0;
#X connect 89 0 91 0;
#X connect 90 0 104 1;
#X connect 91 0 90 0;
#X connect 92 0 105 0;
#X connect 93 0 96 0;
#X connect 94 0 103 1;
#X connect 95 0 94 0;
#X connect 96 0 95 0;
#X connect 97 0 101 0;
#X connect 98 0 110 1;
#X connect 99 0 98 0;
#X connect 100 0 102 0;
#X connect 101 0 99 0;
#X connect 102 0 106 0;
#X connect 103 0 109 0;
#X connect 104 0 108 0;
#X connect 105 0 111 0;
#X connect 106 0 103 0;
#X connect 106 0 112 0;
#X connect 107 0 104 0;
#X connect 108 0 119 0;
#X connect 109 0 120 0;
#X connect 110 0 88 0;
#X connect 111 0 107 0;
#X connect 112 0 26 0;
#X connect 112 0 26 1;
#X connect 113 0 112 1;
#X connect 114 0 113 0;
#X connect 115 0 97 0;
#X connect 116 0 92 0;
#X connect 117 0 89 0;
#X connect 118 0 93 0;
#X connect 119 0 102 1;
